<svg width="20" height="26" viewBox="0 0 20 26" fill="none" xmlns="http://www.w3.org/2000/svg">
<path d="M13.0769 4.68364L10.531 0.147461H5.39062L8.92786 4.68364H13.0769Z" fill="#00D352"/>
<path d="M19.2204 16.7527V7.89385H14.77V9.1567C13.3782 8.25711 11.7449 7.70776 9.99804 7.70776C4.90344 7.70776 0.773438 11.7701 0.773438 16.78C0.773438 21.7901 4.90344 25.8524 9.99804 25.8524C11.7449 25.8524 13.377 25.3031 14.77 24.4024V25.6664H19.2204C19.2204 25.6664 19.2204 16.7889 19.2204 16.78C19.2204 16.7713 19.2204 16.7615 19.2204 16.7527ZM9.99804 21.6293C7.27438 21.6293 5.06696 19.4579 5.06696 16.78C5.06696 14.1021 7.27438 11.932 9.99804 11.932C12.7216 11.932 14.9269 14.1021 14.9269 16.78C14.9269 19.4579 12.7206 21.6293 9.99804 21.6293Z" fill="#00D352"/>
</svg>
