<svg width="154" height="72" viewBox="0 0 154 72" fill="none" xmlns="http://www.w3.org/2000/svg">
<g clip-path="url(#clip0_205_1090)">
<path d="M83.9468 47.3428L77.067 71.7124H71.7811L66.4949 49.892L61.3194 71.7124H55.9229L49.2798 47.3428H53.0274L58.6054 69.1635L64.0019 47.3428H69.2326L74.5188 69.1635L80.081 47.3428H83.9468Z" fill="#E9EAE5"/>
<path d="M89.399 36.8779V40.9184H85.7065V36.8779H89.399ZM89.399 71.7119H85.7065V47.3422H89.399V71.7119Z" fill="#E9EAE5"/>
<path d="M91.1582 47.3425H94.6767L94.6216 50.1283C96.0102 47.8872 98.2193 46.7744 101.265 46.7744C105.959 46.7744 108.31 49.6471 108.31 55.4001H104.791C104.791 53.5219 104.507 52.117 103.947 51.186C103.387 50.2547 102.227 49.7811 100.484 49.7811C96.6966 49.7811 94.7952 51.6751 94.7952 55.4712V71.7122H91.1582V47.3425Z" fill="#E9EAE5"/>
<path d="M127.561 64.2543H131.371C131.371 66.5428 130.961 68.2395 130.133 69.3523C129.304 70.4651 128.176 71.1833 126.756 71.5067C125.336 71.8225 123.403 71.9882 120.973 71.9882C118.693 71.9882 116.839 71.783 115.419 71.3806C113.999 70.9781 112.902 70.3152 112.129 69.4076C111.356 68.5 110.819 67.3006 110.519 65.817C110.219 64.3334 110.069 62.4154 110.069 60.0637C110.069 56.8439 110.283 54.3423 110.709 52.5666C111.134 50.7909 112.089 49.41 113.572 48.4471C115.056 47.4845 117.336 46.9951 120.405 46.9951C123.474 46.9951 125.762 47.3106 127.3 47.9422C128.839 48.5736 129.888 49.6702 130.456 51.2329C131.024 52.7955 131.332 55.1472 131.379 58.3038V60.1901H113.88C113.88 62.4312 113.983 64.1358 114.196 65.2881C114.401 66.4404 114.977 67.3635 115.916 68.058C116.854 68.7526 118.354 69.0997 120.413 69.0997H121.383C123.419 69.0997 124.957 68.8553 125.999 68.3738C127.04 67.8924 127.569 66.7875 127.569 65.0671V64.2622L127.561 64.2543ZM127.632 57.3412C127.632 55.1472 127.49 53.5454 127.206 52.5271C126.922 51.5092 126.298 50.7988 125.336 50.3885C124.373 49.9781 122.827 49.7809 120.697 49.7809C118.827 49.7809 117.407 50.0018 116.436 50.4517C115.466 50.9016 114.795 51.659 114.424 52.7165C114.054 53.7739 113.872 55.3208 113.872 57.3333H127.632V57.3412Z" fill="#E9EAE5"/>
<path d="M153.305 53.64H149.668C149.668 52.0774 149.171 51.0436 148.184 50.5384C147.198 50.0336 145.833 49.781 144.09 49.781H142.275C140.555 49.781 139.253 50.0336 138.37 50.5384C137.486 51.0436 137.044 52.0379 137.044 53.5294C137.044 54.5397 137.139 55.3051 137.336 55.826C137.533 56.3467 137.88 56.7337 138.394 56.9781C138.906 57.2227 139.672 57.3808 140.697 57.4595C142.362 57.499 143.995 57.5306 145.605 57.5701C147.214 57.6097 148.626 57.799 149.849 58.154C151.072 58.5091 152.066 59.1799 152.831 60.1823C153.597 61.1845 153.983 62.6207 153.983 64.507C153.983 66.7481 153.573 68.4053 152.752 69.4785C151.932 70.5597 150.812 71.2463 149.391 71.5463C147.971 71.846 146.07 71.9962 143.695 71.9962C141.533 71.9962 139.727 71.8698 138.275 71.6096C136.831 71.3491 135.616 70.7415 134.638 69.7706C133.66 68.8001 133.17 67.332 133.17 65.3514C133.17 64.7122 133.186 64.2623 133.226 63.994H136.871C136.871 65.446 137.052 66.535 137.415 67.2691C137.778 68.0028 138.362 68.5001 139.166 68.7685C139.971 69.0369 141.139 69.163 142.662 69.163H143.506C146.394 69.163 148.287 68.8393 149.194 68.1922C149.912 67.6873 150.275 66.5113 150.275 64.6727C150.275 63.0784 149.904 62.0605 149.155 61.6343C148.405 61.2082 147.245 60.9872 145.676 60.9872H144.192C144.137 60.9872 144.027 60.9714 143.861 60.9319C143.695 60.8924 143.577 60.8766 143.514 60.8766C141.115 60.7267 139.53 60.6164 138.764 60.5374C137.999 60.4583 137.155 60.2216 136.247 59.8191C135.34 59.4167 134.63 58.7696 134.109 57.8778C133.589 56.986 133.328 55.7707 133.328 54.2239C133.328 51.3278 133.912 49.4731 135.088 48.6603C136.729 47.4843 139.356 46.9004 142.985 46.9004C144.989 46.9004 146.725 47.0581 148.192 47.3661C149.652 47.674 150.867 48.329 151.837 49.3232C152.808 50.3175 153.289 51.7619 153.289 53.6558L153.305 53.64Z" fill="#E9EAE5"/>
<path d="M23.8503 23.0596H27.7163C27.7163 23.4227 27.7478 23.9593 27.8031 24.6853C27.8583 25.4114 27.8898 25.948 27.8898 26.311C27.8898 31.5512 25.3099 34.4078 20.1501 34.8893C18.2803 34.9999 16.4341 35.0549 14.5958 35.0549H9.72004C7.25058 34.8735 5.34128 34.2579 3.97637 33.2163C2.61147 32.1746 1.66471 30.8409 1.12822 29.2231C0.591724 27.6053 0.284027 25.6481 0.197241 23.3753C0.110455 21.1025 0.0473378 19.1453 0 17.5038V11.9797C0 9.65947 0.252468 7.68656 0.757404 6.06085C1.26234 4.43514 2.16965 3.13302 3.47142 2.13866C4.78113 1.1443 6.59575 0.528746 8.91528 0.284102C10.3591 0.102592 12.6155 0 15.6846 0C18.1304 0 20.0633 0.142051 21.4756 0.418261C22.8878 0.694472 24.0003 1.20743 24.8129 1.95715C25.6255 2.70686 26.2251 3.78802 26.6038 5.19275C26.9825 6.59748 27.2429 8.54675 27.3928 11.0248H23.5111C23.5111 9.03603 23.377 7.52871 23.1166 6.4949C22.8563 5.46108 22.2803 4.69557 21.3967 4.18261C20.513 3.66966 19.156 3.40923 17.3256 3.40923C15.1481 3.40923 12.7023 3.50394 9.99616 3.68543C8.33146 3.8275 7.07699 4.20629 6.23281 4.82974C5.38862 5.45318 4.82844 6.3055 4.55233 7.39455C4.27618 8.48362 4.14204 9.95148 4.14204 11.8139V19.8319C4.14204 24.5748 4.59964 27.771 5.51484 29.4284C6.33538 30.9041 8.63914 31.6458 12.434 31.6458C12.7102 31.6458 13.2151 31.6616 13.941 31.7011C14.6668 31.7406 15.2507 31.7564 15.6767 31.7564C18.0436 31.7564 19.9923 31.4327 21.5387 30.7777C23.0851 30.1226 23.8898 28.8601 23.9608 26.9818C23.9608 26.532 23.945 25.8612 23.9056 24.9852C23.8661 24.1092 23.8503 23.4621 23.8503 23.0596Z" fill="white"/>
<path d="M49.8309 10.5195V34.8891H46.4858V31.6535C45.4679 33.0979 44.3397 34.0447 43.0854 34.4866C41.8309 34.9286 40.1662 35.1575 38.0753 35.1575C35.1877 35.1575 33.0655 34.4708 31.7006 33.1058C30.3357 31.7404 29.6572 29.586 29.6572 26.6423V10.5195H33.4049V26.6502C33.4049 28.1181 33.5547 29.2466 33.8625 30.0279C34.1702 30.8091 34.6987 31.3617 35.4641 31.6772C36.2294 31.993 37.3575 32.1586 38.8565 32.1586C40.7895 32.1586 42.2726 31.9298 43.3063 31.472C44.3397 31.0142 45.0578 30.2647 45.4679 29.2308C45.8783 28.197 46.0754 26.7291 46.0754 24.8351V10.5195H49.823H49.8309Z" fill="white"/>
<path d="M71.922 16.8177H68.285C68.285 15.2551 67.7881 14.2213 66.8016 13.7162C65.8154 13.2112 64.4505 12.9586 62.7069 12.9586H60.8924C59.1726 12.9586 57.8707 13.2112 56.9869 13.7162C56.1034 14.2213 55.6617 15.2156 55.6617 16.7072C55.6617 17.7173 55.7561 18.4828 55.9535 19.0037C56.1506 19.5245 56.4979 19.9112 57.0107 20.1559C57.5234 20.4005 58.2887 20.5583 59.3145 20.6373C60.9792 20.6767 62.6122 20.7083 64.2217 20.7478C65.8312 20.7872 67.2436 20.9766 68.4665 21.3317C69.6894 21.6869 70.6835 22.3577 71.4486 23.3599C72.2139 24.3622 72.6005 25.7984 72.6005 27.6846C72.6005 29.9258 72.1904 31.583 71.3699 32.6562C70.5492 33.7374 69.429 34.424 68.0089 34.724C66.5886 35.0238 64.6872 35.1739 62.3124 35.1739C60.1508 35.1739 58.3439 35.0475 56.8922 34.7873C55.4484 34.5268 54.2334 33.9192 53.2551 32.9483C52.2769 31.9778 51.7876 30.5097 51.7876 28.529C51.7876 27.8898 51.8034 27.4399 51.843 27.1716H55.488C55.488 28.6237 55.6696 29.7127 56.0324 30.4468C56.3953 31.1805 56.979 31.6778 57.7839 31.9462C58.5885 32.2143 59.7563 32.3407 61.279 32.3407H62.1232C65.0108 32.3407 66.9042 32.017 67.8115 31.3699C68.5296 30.865 68.8925 29.689 68.8925 27.8503C68.8925 26.2562 68.5217 25.2381 67.7722 24.812C67.0227 24.3858 65.8629 24.1649 64.2927 24.1649H62.8096C62.7545 24.1649 62.6439 24.1491 62.4781 24.1096C62.3124 24.0702 62.1942 24.0544 62.1311 24.0544C59.7325 23.9044 58.1468 23.794 57.3815 23.715C56.6162 23.6361 55.7719 23.3994 54.8647 22.9969C53.9574 22.5944 53.2472 21.9473 52.7266 21.0555C52.2059 20.1638 51.9454 18.9484 51.9454 17.4017C51.9454 14.5054 52.5294 12.6508 53.7048 11.838C55.346 10.6621 57.9731 10.0781 61.6025 10.0781C63.6063 10.0781 65.3422 10.236 66.8095 10.5438C68.277 10.8515 69.4841 11.5065 70.4547 12.5009C71.4251 13.4953 71.9062 14.9394 71.9062 16.8335L71.922 16.8177Z" fill="white"/>
<path d="M85.5709 10.5195L84.4821 13.471H90.8333V10.5195H85.5709ZM88.3954 26.3188V27.8419C88.3954 29.3729 88.1904 30.4699 87.7721 31.1486C87.3541 31.8194 86.3914 32.1586 84.8687 32.1586C83.4883 32.1586 82.5731 31.8902 82.1231 31.3617C81.6813 30.8249 81.4605 29.8306 81.4605 28.3548V21.639L77.9971 31.0142C78.1074 31.5668 78.2573 32.0404 78.4388 32.4507C78.8806 33.4292 79.6142 34.1237 80.6321 34.542C81.6579 34.9602 83.07 35.1654 84.8687 35.1654C87.7011 35.1654 89.5632 34.4316 90.4547 32.9635C91.3461 31.4878 91.7958 29.278 91.7958 26.3188H88.3954Z" fill="white"/>
<path d="M94.0127 21.986C94.0127 19.0345 94.2732 16.7222 94.7859 15.0334C95.299 13.3446 96.2928 12.0977 97.7762 11.2848C99.2596 10.472 101.445 10.0537 104.348 10.0537C107.473 10.0537 109.832 10.393 111.417 11.0717C113.003 11.7504 114.084 12.9105 114.668 14.5599C115.252 16.2092 115.544 18.6083 115.544 21.7571C115.544 25.0717 115.378 27.6128 115.039 29.3885C114.699 31.1642 113.808 32.5925 112.348 33.6657C110.889 34.739 108.585 35.2837 105.437 35.2837C102.289 35.2837 100.103 34.9916 98.4942 34.4156C96.8847 33.8393 95.7407 32.766 95.0543 31.2037C94.3679 29.641 94.0206 27.3445 94.0206 24.3062V21.9781L94.0127 21.986ZM97.7052 21.986V24.0378C97.7052 27.7864 98.1945 30.1854 99.1727 31.2508C99.867 31.9374 101.169 32.2769 103.094 32.2769H104.853C106.408 32.2769 107.638 32.1505 108.554 31.9058C109.469 31.6611 110.179 31.1563 110.692 30.4064C111.204 29.6569 111.504 28.5361 111.599 27.0525C111.646 25.7582 111.67 23.8958 111.67 21.473C111.67 19.0503 111.567 17.393 111.37 16.2961C111.173 15.207 110.652 14.3941 109.808 13.8654C108.964 13.3366 107.575 13.0683 105.642 13.0683H104.853C102.676 13.0683 101.098 13.2735 100.119 13.676C99.141 14.0864 98.5022 14.8282 98.1786 15.9251C97.863 17.0142 97.6973 18.7741 97.6973 21.1968V21.986H97.7052Z" fill="white"/>
<path d="M117.706 10.5193H121.224V14.1573C122.566 11.5057 125.193 10.1799 129.114 10.1799C133.477 10.1799 136.088 11.5057 136.948 14.1573C138.55 11.4268 141.272 10.0615 145.13 10.0615C147.276 10.0615 148.988 10.3535 150.266 10.9375C151.544 11.5215 152.475 12.4448 153.059 13.7075C153.643 14.9702 153.935 16.659 153.935 18.7661V34.8967H150.243V18.4741C150.243 16.4144 149.848 14.9938 149.067 14.2284C148.286 13.4629 146.842 13.0762 144.736 13.0762C143.331 13.0762 142.014 13.2892 140.783 13.7154C139.552 14.1416 138.692 14.8755 138.203 15.9172C137.824 16.8405 137.635 18.19 137.635 19.9577V34.8967H133.887V18.7661C133.832 17.2035 133.666 16.0435 133.382 15.278C133.098 14.5125 132.577 13.9758 131.812 13.6601C131.047 13.3445 129.848 13.1866 128.207 13.1866C125.635 13.1866 123.828 13.818 122.779 15.0886C121.729 16.3591 121.209 18.3005 121.209 20.9127V34.8967H117.69V10.5193H117.706Z" fill="white"/>
<path d="M86.0839 9.13862L85.5712 10.5197L84.4823 13.4712L81.4607 21.6391L77.9973 31.0144L75.8275 36.8781L77.7685 21.0315L78.6992 13.4317H74.5967L76.4746 10.5197L77.7685 8.5073L80.2378 4.66402L83.2439 0L82.2339 9.13862H86.0839Z" fill="#FF6F39"/>
</g>
<defs>
<clipPath id="clip0_205_1090">
<rect width="154" height="72" fill="white"/>
</clipPath>
</defs>
</svg>
