<svg width="25" height="11" viewBox="0 0 25 11" fill="none" xmlns="http://www.w3.org/2000/svg">
<path d="M22.4976 7.31879H22.5151L23.9741 3.65571H25.0005L21.8462 11.0004H20.8735L22.0454 8.4311L19.9771 3.65571H21.0024L22.4976 7.31879ZM17.562 3.48969C18.2592 3.48975 18.81 3.67976 19.2144 4.05415C19.6188 4.42879 19.8188 4.95265 19.8188 5.61274V8.75825H18.9155V8.05024H18.8745C18.4819 8.63291 17.9664 8.92512 17.3159 8.92524C16.7649 8.92524 16.2955 8.75826 15.9263 8.42524C15.5629 8.11601 15.3579 7.65786 15.3696 7.17622C15.3697 6.6471 15.5688 6.23059 15.9614 5.91547C16.3541 5.60036 16.8821 5.44575 17.5386 5.44575C18.1011 5.44579 18.5581 5.55321 18.9214 5.75532V5.53559C18.9214 5.20854 18.7808 4.89909 18.5347 4.685C18.2827 4.45909 17.9605 4.33449 17.6265 4.33442C17.0989 4.33442 16.6822 4.5602 16.3774 5.01215L15.5454 4.48286C15.9909 3.82277 16.6652 3.48969 17.562 3.48969ZM13.0894 1.30122C13.6931 1.28933 14.2796 1.5215 14.7075 1.94965C15.5628 2.75832 15.6155 4.11954 14.813 4.9936L14.7075 5.10102C14.2679 5.52323 13.7282 5.73773 13.0894 5.73774H11.5298V8.75825H10.5864V1.30122H13.0894ZM17.6851 6.21918C17.3042 6.2192 16.982 6.3143 16.7241 6.49848C16.472 6.68283 16.3423 6.91527 16.3423 7.19477C16.3424 7.44437 16.4605 7.67615 16.6538 7.81879C16.8648 7.98515 17.1225 8.07474 17.3862 8.06879C17.7849 8.06877 18.1664 7.90793 18.4478 7.6225C18.7583 7.32522 18.9165 6.97404 18.9165 6.56977C18.6234 6.3319 18.2127 6.21324 17.6851 6.21918ZM11.5298 4.82172H13.1128C13.4645 4.83362 13.805 4.69072 14.0454 4.435C14.5378 3.91763 14.5261 3.08489 14.0161 2.5854C13.7758 2.34754 13.4528 2.21723 13.1128 2.21723H11.5298V4.82172Z" fill="#3C4043"/>
<path d="M8.27202 5.08307C8.27202 4.79168 8.24857 4.50029 8.20168 4.21484H4.22168V5.8621H6.50183C6.40804 6.39136 6.10324 6.8671 5.65776 7.16444V8.23485H7.01764C7.81481 7.49151 8.27202 6.39136 8.27202 5.08307Z" fill="#4285F4"/>
<path d="M4.22211 9.26961C5.35925 9.26961 6.32055 8.88902 7.01807 8.23487L5.65819 7.16446C5.27719 7.42611 4.79068 7.57478 4.22211 7.57478C3.12013 7.57478 2.18815 6.81954 1.85404 5.80859H0.453125V6.91469C1.16824 8.35975 2.62776 9.26961 4.22211 9.26961Z" fill="#34A853"/>
<path d="M1.85401 5.80884C1.67814 5.27958 1.67814 4.70274 1.85401 4.16753V3.06738H0.452877C-0.150959 4.27458 -0.150959 5.7018 0.452877 6.90899L1.85401 5.80884Z" fill="#FBBC04"/>
<path d="M4.22211 2.40114C4.82585 2.38925 5.40614 2.62117 5.8399 3.04339L7.04738 1.81836C6.27951 1.09285 5.27133 0.69442 4.22211 0.706313C2.62776 0.706313 1.16824 1.62211 0.453125 3.06718L1.85404 4.17328C2.18815 3.15638 3.12013 2.40114 4.22211 2.40114Z" fill="#EA4335"/>
</svg>
