<svg width="88" height="40" viewBox="0 0 88 40" fill="none" xmlns="http://www.w3.org/2000/svg">
<g clip-path="url(#clip0_421_1723)">
<g clip-path="url(#clip1_421_1723)">
<path d="M13.3164 13.0287H15.5058C15.5058 13.2324 15.5216 13.5379 15.553 13.9453C15.5846 14.3527 15.6003 14.6583 15.6003 14.8619C15.6003 17.8181 14.1381 19.432 11.2136 19.7035C10.1531 19.7662 9.1004 19.7976 8.05558 19.7976H5.28342C3.88157 19.6931 2.79214 19.3484 2.01508 18.7635C1.24329 18.1733 0.705129 17.4212 0.40061 16.5071C0.0960905 15.588 -0.0797946 14.4858 -0.127048 13.201C-0.174301 11.9162 -0.211053 10.8115 -0.237305 9.88706V6.76896C-0.237305 5.45799 -0.0955455 4.34549 0.187971 3.43149C0.47674 2.51224 0.991271 1.77319 1.73157 1.21434C2.47712 0.650257 3.5088 0.30032 4.82663 0.164523C5.64569 0.054841 6.92677 0 8.66987 0C10.0612 0 11.1559 0.0783444 11.9539 0.235033C12.7572 0.391722 13.3899 0.681596 13.852 1.10465C14.314 1.52771 14.6527 2.1388 14.8679 2.93791C15.0831 3.73181 15.2327 4.82862 15.3167 6.22837H13.1195C13.1195 5.10544 13.0434 4.25409 12.8911 3.67435C12.7441 3.08938 12.4186 2.65326 11.9146 2.36599C11.4158 2.07351 10.6466 1.92727 9.60706 1.92727C8.36797 1.92727 6.97926 1.9795 5.44092 2.08396C4.49586 2.1623 3.78182 2.37906 3.29879 2.73421C2.82101 3.08415 2.50336 3.56728 2.34585 4.18358C2.19359 4.79467 2.11746 5.62512 2.11746 6.67493V11.2032C2.11746 13.8826 2.37735 15.6897 2.89713 16.6246C3.36441 17.4603 4.67438 17.8782 6.827 17.8782C6.98451 17.8782 7.27065 17.8886 7.68544 17.9095C8.1002 17.9304 8.42836 17.9409 8.66987 17.9409C10.0139 17.9409 11.1244 17.7581 12.0012 17.3924C12.878 17.0216 13.3374 16.306 13.3794 15.2458C13.3794 14.9899 13.3689 14.6138 13.3479 14.1176C13.3269 13.6215 13.3164 13.2585 13.3164 13.0287Z" fill="#1C1E22"/>
<path d="M28.075 5.93851V19.7035H26.1692V17.8782C25.5916 18.693 24.9484 19.2284 24.2396 19.4843C23.5308 19.7349 22.5831 19.8603 21.3966 19.8603C19.7585 19.8603 18.5509 19.4738 17.7739 18.7008C17.0021 17.9278 16.6162 16.7109 16.6162 15.05V5.93851H18.7505V15.05C18.7505 15.8804 18.8371 16.5176 19.0103 16.9615C19.1835 17.4003 19.4854 17.711 19.916 17.8938C20.3519 18.0714 20.9949 18.1603 21.8456 18.1603C22.9429 18.1603 23.7829 18.0322 24.3657 17.7763C24.9537 17.5152 25.3632 17.0922 25.5942 16.5071C25.8252 15.9222 25.9408 15.0944 25.9408 14.0237V5.93851H28.075Z" fill="#1C1E22"/>
<path d="M40.6127 9.49534H38.5494C38.5494 8.61265 38.2685 8.0303 37.7067 7.74825C37.1449 7.461 36.3705 7.31736 35.3834 7.31736H34.3517C33.3752 7.31736 32.6349 7.461 32.1308 7.74825C31.6321 8.0303 31.3827 8.59176 31.3827 9.43265C31.3827 10.002 31.4378 10.4355 31.5481 10.7332C31.6583 11.0257 31.8579 11.2424 32.1466 11.3834C32.4354 11.5192 32.8711 11.608 33.454 11.6498C34.399 11.6707 35.3283 11.6916 36.2418 11.7125C37.1554 11.7334 37.9588 11.843 38.6518 12.0415C39.3448 12.24 39.9092 12.6213 40.3451 13.1854C40.7808 13.7494 40.9986 14.5642 40.9986 15.6298C40.9986 16.8937 40.765 17.8311 40.2977 18.4422C39.8357 19.0482 39.2004 19.4372 38.3918 19.6096C37.5885 19.7767 36.5123 19.8603 35.1629 19.8603C33.9344 19.8603 32.908 19.7871 32.0836 19.641C31.2645 19.4947 30.5768 19.1499 30.0202 18.6068C29.4689 18.0584 29.1934 17.2253 29.1934 16.1075C29.1934 15.7473 29.2039 15.4914 29.2248 15.3398H31.2882C31.2882 16.1599 31.3906 16.7787 31.5953 17.1965C31.8054 17.6091 32.1387 17.8912 32.5956 18.0426C33.0523 18.1889 33.7138 18.262 34.5801 18.262H35.0605C36.6987 18.262 37.775 18.0793 38.2896 17.7136C38.699 17.4264 38.9038 16.763 38.9038 15.7237C38.9038 14.8201 38.6911 14.2482 38.2659 14.008C37.8406 13.7625 37.1817 13.6398 36.2891 13.6398H35.4465C35.415 13.6398 35.352 13.6293 35.2574 13.6084C35.1629 13.5875 35.0973 13.5771 35.0605 13.5771C33.7008 13.4935 32.8029 13.4308 32.3671 13.389C31.9314 13.342 31.4562 13.2062 30.9417 12.9817C30.4271 12.7518 30.0228 12.3862 29.7289 11.8848C29.4349 11.3782 29.2878 10.6888 29.2878 9.81654C29.2878 8.18176 29.6212 7.13456 30.288 6.67493C31.2173 6.01163 32.711 5.67996 34.7691 5.67996C35.9085 5.67996 36.8929 5.76875 37.7225 5.94634C38.552 6.11868 39.2399 6.48691 39.7859 7.05099C40.3372 7.60984 40.6127 8.42462 40.6127 9.49534Z" fill="#1C1E22"/>
<path d="M51.3628 5.93851V7.60724H46.0391V16.0136C46.0391 16.844 46.1651 17.4107 46.4171 17.7136C46.6691 18.0113 47.1889 18.1603 47.9764 18.1603C48.8374 18.1603 49.3861 17.9696 49.6224 17.5882C49.8586 17.2071 49.9768 16.5855 49.9768 15.7237V14.8619H51.9062C51.9062 16.5333 51.6517 17.7842 51.1424 18.6147C50.6383 19.4451 49.5831 19.8603 47.9764 19.8603C46.9526 19.8603 46.1493 19.7428 45.5664 19.5077C44.989 19.2727 44.5742 18.8783 44.3222 18.3247C44.0701 17.7711 43.9442 17.0007 43.9442 16.0136V7.60724H42.1328V5.93851H43.9442V2.63237H46.0391V5.93851H51.3628Z" fill="black"/>
<path d="M53.1665 12.4176C53.1665 10.7514 53.311 9.4431 53.5997 8.49253C53.8937 7.54195 54.4608 6.83684 55.3008 6.37723C56.1409 5.91239 57.3852 5.67996 59.0338 5.67996C60.8084 5.67996 62.1446 5.87322 63.0424 6.25971C63.9455 6.64098 64.5624 7.29647 64.8932 8.22616C65.224 9.15583 65.3893 10.5112 65.3893 12.2922C65.3893 14.1621 65.2922 15.5983 65.0979 16.6011C64.9089 17.604 64.3996 18.4109 63.5701 19.022C62.7457 19.6278 61.4385 19.9308 59.648 19.9308C57.9312 19.9308 56.6161 19.7689 55.7024 19.4451C54.7942 19.116 54.1431 18.5102 53.7493 17.6274C53.3608 16.7448 53.1665 15.4469 53.1665 13.7338V12.4176ZM55.2615 13.5771C55.2615 15.6923 55.5397 17.0504 56.0962 17.6509C56.49 18.0375 57.2329 18.2307 58.325 18.2307H59.3251C60.2072 18.2307 60.9081 18.1603 61.428 18.0192C61.9477 17.8782 62.352 17.5961 62.6407 17.173C62.9348 16.75 63.1081 16.1181 63.1606 15.2771C63.1869 14.5459 63.1999 13.4961 63.1999 12.1277C63.1999 10.7958 63.1421 9.82177 63.0267 9.20545C62.9164 8.58915 62.6198 8.13214 62.1368 7.83444C61.659 7.5315 60.8714 7.38004 59.7741 7.38004H59.3251C58.0861 7.38004 57.1882 7.49493 56.6318 7.72475C56.0804 7.95456 55.7129 8.37762 55.5291 8.99392C55.3507 9.61024 55.2615 10.6026 55.2615 11.971V13.5771Z" fill="#1C1E22"/>
<path d="M66.6177 5.93851H68.6181V7.99113C69.3793 6.49214 70.873 5.74264 73.0992 5.74264C75.5774 5.74264 77.0606 6.49214 77.5489 7.99113C78.4571 6.45035 80.006 5.67996 82.1954 5.67996C83.4135 5.67996 84.3847 5.84448 85.1093 6.17354C85.8391 6.50257 86.3694 7.02487 86.7002 7.74041C87.031 8.45074 87.1964 9.40131 87.1964 10.5922V19.7035H85.1014V10.4276C85.1014 9.26291 84.8783 8.46379 84.4321 8.0303C83.991 7.59679 83.172 7.38004 81.9749 7.38004C81.1768 7.38004 80.4286 7.50017 79.7303 7.74041C79.0321 7.98068 78.5438 8.3959 78.2656 8.98609C78.0503 9.50839 77.9427 10.2683 77.9427 11.2659V19.7035H75.8084V10.5922C75.7768 9.70947 75.6798 9.05399 75.5171 8.62572C75.3595 8.19221 75.0628 7.88666 74.6271 7.70908C74.1965 7.5315 73.5166 7.44271 72.5874 7.44271C71.1277 7.44271 70.1013 7.80048 69.5081 8.51603C68.9147 9.23157 68.6181 10.3284 68.6181 11.8065V19.7035H66.6177V5.93851Z" fill="#1C1E22"/>
<path d="M46.7732 27.4195L43.3106 39.7473H40.6235L38.9694 32.8994L38.4658 30.8087L38.2342 29.7633L37.988 28.7181H37.9476L37.7012 29.7633L37.455 30.8087L36.9513 32.8994L35.2825 39.7473H32.544L29.1953 27.4195H31.0958L32.8418 34.2418L33.3858 36.3838L33.6431 37.4548L33.9004 38.5258H33.9519L34.1981 37.4548L34.4555 36.3838L34.9737 34.2565L36.6683 27.4233H39.304L40.9838 34.2711L41.502 36.3985L41.7484 37.4548L41.9946 38.5258H42.035L42.307 37.4548L42.5644 36.3838L43.1084 34.2418L44.8397 27.4195H46.7769H46.7732Z" fill="#FF6F39"/>
<path d="M50.2509 22.1453V24.17H48.4419V22.1453H50.2509ZM50.2509 27.4197V39.7473H48.4419V27.4197H50.2509Z" fill="#FF6F39"/>
<path d="M53.5957 27.4197H55.4043L55.2241 28.839L55.2645 28.8794C55.9813 27.7204 57.1612 27.1372 58.8044 27.1372C61.0797 27.1372 62.2156 28.3073 62.2156 30.6437L62.2008 31.4947H60.4181L60.4585 31.1866C60.4843 30.8601 60.499 30.64 60.499 30.53C60.499 29.2646 59.8079 28.6336 58.4331 28.6336C56.4188 28.6336 55.4079 29.8771 55.4079 32.3603V39.7473H53.5994V27.4197H53.5957Z" fill="#FF6F39"/>
<path d="M72.5518 36.0208H74.4007L74.4155 36.4718C74.4155 37.752 74.0258 38.6505 73.2465 39.1604C72.4672 39.6702 71.0998 39.9269 69.1443 39.9269C66.8689 39.9269 65.3766 39.5125 64.6671 38.6836C63.9576 37.8547 63.6011 36.1124 63.6011 33.4533C63.6011 30.9957 63.9576 29.3452 64.6744 28.5016C65.3912 27.658 66.7881 27.2363 68.876 27.2363C71.1512 27.2363 72.64 27.603 73.3457 28.3329C74.0515 29.0628 74.4044 30.6033 74.4044 32.9507V33.919H65.5125C65.5125 35.863 65.722 37.0991 66.1411 37.6309C66.5601 38.1628 67.5342 38.4304 69.0671 38.4304C70.6 38.4304 71.4674 38.3021 71.9049 38.049C72.3423 37.796 72.5591 37.2458 72.5591 36.4058V36.0208H72.5518ZM72.5518 32.5143L72.5371 31.9347C72.5371 30.6033 72.3165 29.7377 71.8791 29.3379C71.4416 28.9381 70.4933 28.7401 69.0376 28.7401C67.582 28.7401 66.6227 28.9748 66.1889 29.4443C65.7551 29.9138 65.5346 30.937 65.5346 32.5179H72.5518V32.5143Z" fill="#FF6F39"/>
<path d="M86.8328 30.6437H85.0242C85.0242 29.7855 84.8515 29.25 84.5023 29.0446C84.1531 28.8392 83.2562 28.7365 81.8079 28.7365C80.4626 28.7365 79.6097 28.8465 79.2494 29.0666C78.8893 29.2866 78.7055 29.8111 78.7055 30.6473C78.7055 31.9128 79.312 32.573 80.5287 32.6317L81.988 32.7086L83.837 32.8004C86.0756 32.9104 87.1967 34.0804 87.1967 36.3068C87.1967 37.6897 86.8255 38.6396 86.0865 39.1568C85.3477 39.6739 83.9877 39.9307 82.0175 39.9307C80.0472 39.9307 78.5989 39.685 77.8379 39.1971C77.0771 38.7093 76.6948 37.8071 76.6948 36.5013L76.7095 35.83H78.5841L78.5989 36.4095C78.5989 37.2165 78.8047 37.7557 79.2201 38.0271C79.6354 38.2985 80.4478 38.4342 81.6608 38.4342C83.1495 38.4342 84.1309 38.2912 84.6015 38.0087C85.072 37.7264 85.3073 37.1322 85.3073 36.2299C85.3073 34.9313 84.7154 34.2822 83.5355 34.2822C80.786 34.2822 78.9812 34.0511 78.1136 33.5853C77.2461 33.1194 76.8161 32.1585 76.8161 30.6951C76.8161 29.3122 77.1579 28.388 77.8417 27.9295C78.5254 27.471 79.8891 27.24 81.9329 27.24C85.208 27.24 86.8437 28.223 86.8437 30.1925V30.6437H86.8328Z" fill="#FF6F39"/>
</g>
</g>
<defs>
<clipPath id="clip0_421_1723">
<rect width="88" height="40" rx="4" fill="white"/>
</clipPath>
<clipPath id="clip1_421_1723">
<rect width="87.4741" height="40" fill="white" transform="translate(-0.237305)"/>
</clipPath>
</defs>
</svg>
