<svg width="22" height="24" viewBox="0 0 22 24" fill="none" xmlns="http://www.w3.org/2000/svg">
<path d="M4.08099 21.3429C3.99288 21.3201 3.90423 21.2986 3.81639 21.2738C3.32472 21.1334 2.89516 20.8796 2.54029 20.4979C1.92811 19.8392 1.59888 19.0518 1.5708 18.1316C1.56063 17.7859 1.59916 17.4459 1.67728 17.11C1.76818 16.7157 1.9101 16.3431 2.09586 15.9872C2.39241 15.4193 2.77806 14.9253 3.23409 14.4882C3.5778 14.1589 3.9523 13.8721 4.35352 13.6233C4.729 13.3901 5.07972 13.1209 5.41497 12.8295C5.83689 12.4617 6.2301 12.0622 6.6198 11.6588C6.96432 11.3021 7.3047 10.942 7.6639 10.6019C7.93417 10.3452 8.21451 10.1018 8.51736 9.88787C8.89608 9.62066 9.29982 9.40963 9.75064 9.30724C10.0889 9.23043 10.4287 9.21904 10.771 9.27402C11.1581 9.33524 11.5321 9.44454 11.8907 9.60871C12.4396 9.86062 12.8871 10.2423 13.2432 10.7441C13.4864 11.0886 13.6783 11.4631 13.85 11.8496C14.0323 12.2596 14.1924 12.6792 14.3603 13.0958C14.5497 13.5649 14.7487 14.029 14.9831 14.4762C15.2166 14.922 15.4862 15.3431 15.7915 15.7391C16.1607 16.2182 16.4731 16.7333 16.7188 17.2926C16.9277 17.7718 17.0799 18.2688 17.1566 18.7898C17.2164 19.1956 17.2282 19.6016 17.1793 20.01C17.1055 20.6303 16.9038 21.1995 16.5423 21.7034C16.2077 22.1706 15.7793 22.5165 15.2736 22.761C14.9019 22.9407 14.5138 23.0579 14.1035 23.0875C13.9581 23.0985 13.8123 23.0987 13.6671 23.0871C13.6468 23.0855 13.6269 23.0858 13.6073 23.0853C13.5868 23.093 13.5675 23.081 13.5474 23.0799C13.5308 23.0792 13.5149 23.0684 13.4976 23.0763C13.3757 23.0541 13.2533 23.0317 13.1312 23.0094C13.1186 22.9957 13.1009 23.0004 13.0858 22.9954C13.0715 22.9929 13.058 22.9904 13.044 22.9879C13.0324 22.9857 13.0199 22.9834 13.0085 22.9814C12.6979 22.9137 12.4061 22.7904 12.1161 22.6619C11.625 22.4437 11.1506 22.1881 10.664 21.9596C10.2698 21.7749 9.86872 21.6102 9.45364 21.4821C9.16609 21.3934 8.87251 21.3357 8.57713 21.2926C8.34097 21.2578 8.10157 21.2528 7.86307 21.2555C7.3921 21.2616 6.92364 21.3079 6.4551 21.3533C5.95929 21.4021 5.46366 21.4504 4.9656 21.4444C4.7631 21.4414 4.56105 21.4339 4.36134 21.3952C4.3203 21.3871 4.27846 21.3861 4.23706 21.3775C4.18476 21.3647 4.13094 21.3649 4.08099 21.3429ZM16.257 2.2533C16.9019 2.4563 17.3457 2.89748 17.6366 3.51834C17.8359 3.94412 17.9296 4.39791 17.9554 4.86934C17.9768 5.27534 17.9428 5.67714 17.8622 6.0752C17.714 6.80666 17.4294 7.47511 17.0104 8.08196C16.7202 8.50252 16.3758 8.86671 15.966 9.16024C15.601 9.42092 15.2061 9.61039 14.7687 9.69346C14.4614 9.7517 14.1557 9.75235 13.8515 9.67722C13.325 9.54786 12.9109 9.2448 12.5968 8.79046C12.3291 8.40266 12.1761 7.96502 12.0983 7.49723C12.0439 7.1701 12.0311 6.84091 12.0516 6.51023C12.0653 6.28362 12.0936 6.05934 12.1383 5.83814C12.2434 5.31584 12.4208 4.82099 12.6689 4.35442C12.9326 3.8576 13.2618 3.41539 13.6722 3.04112C14.0174 2.72631 14.4008 2.47683 14.8364 2.3205C15.1568 2.20542 15.4857 2.15324 15.8247 2.1748C16.0107 2.18843 16.0841 2.20336 16.257 2.2533ZM0.628594 7.67848C0.674584 7.47072 0.745684 7.27146 0.832984 7.07863C1.00218 6.7039 1.23051 6.37592 1.54362 6.11655C1.89345 5.82712 2.29153 5.67126 2.73847 5.6608C3.10126 5.65259 3.4419 5.74686 3.76329 5.91822C4.13283 6.11552 4.44207 6.39282 4.70199 6.7276C5.106 7.24635 5.358 7.83976 5.49165 8.49058C5.56149 8.83134 5.59128 9.17639 5.58102 9.52471C5.57607 9.69383 5.55897 9.86164 5.53377 10.0288C5.48571 10.3462 5.40228 10.6518 5.27502 10.9441C5.10528 11.3341 4.87317 11.6749 4.54989 11.9438C4.17882 12.2523 3.75501 12.4089 3.27999 12.4027C2.93151 12.3982 2.60499 12.2986 2.29764 12.1293C1.88454 11.9007 1.55227 11.5772 1.27741 11.1868C1.00921 10.8068 0.816155 10.3872 0.686825 9.93622C0.560015 9.49382 0.497644 9.0405 0.509164 8.57775C0.511414 8.49599 0.515644 8.41451 0.518794 8.33322C0.516904 8.29532 0.526355 8.25874 0.524195 8.22103C0.522845 8.20516 0.527435 8.19126 0.529415 8.17548C0.529955 8.15579 0.541834 8.13675 0.533734 8.11547C0.550294 8.01812 0.566854 7.92096 0.583414 7.82324C0.605464 7.79982 0.601865 7.76846 0.608705 7.74036C0.613745 7.71936 0.612484 7.69594 0.628594 7.67848ZM5.74158 3.85947C5.84247 3.27978 6.01059 2.77111 6.2823 2.30174C6.48741 1.9467 6.73932 1.63384 7.05873 1.38334C7.4028 1.11267 7.78567 0.94355 8.21847 0.910043C8.65137 0.87607 9.05313 0.981817 9.42771 1.206C9.75756 1.40368 10.0294 1.67015 10.2573 1.98543C10.6216 2.48812 10.847 3.05578 10.9722 3.66888C11.0516 4.05874 11.085 4.45279 11.0746 4.85076C11.0687 5.07644 11.0492 5.30147 11.0156 5.52556C10.9726 5.80734 10.9079 6.08416 10.8163 6.35343C10.6253 6.91604 10.345 7.42144 9.92748 7.83724C9.66801 8.09503 9.37245 8.29336 9.03072 8.41274C8.64886 8.54592 8.26194 8.56002 7.87279 8.45604C7.52098 8.36234 7.21263 8.18071 6.93813 7.93496C6.57993 7.61464 6.31254 7.22218 6.10959 6.78071C5.86893 6.25646 5.73672 5.70131 5.69163 5.12246C5.66688 4.80578 5.67057 4.489 5.70153 4.1727C5.7126 4.05398 5.72502 3.9347 5.74158 3.85947ZM21.4175 11.8286C21.4137 11.8509 21.4099 11.8734 21.4061 11.896C21.2863 12.4508 21.0533 12.9511 20.736 13.4108C20.4867 13.7709 20.193 14.0869 19.8509 14.3521C19.4116 14.6931 18.9285 14.9332 18.3858 15.0312C18.0608 15.0899 17.7364 15.0888 17.4145 15.0106C16.9391 14.8946 16.5509 14.6365 16.2563 14.2306C16.0133 13.8951 15.8803 13.5129 15.8257 13.1002C15.7763 12.7301 15.7937 12.3612 15.8673 11.9956C16.0285 11.1917 16.3986 10.5019 16.9374 9.90719C17.1195 9.70578 17.3197 9.52564 17.5368 9.36716C17.9831 9.04255 18.4683 8.81883 19.0109 8.74099C19.3195 8.69759 19.6255 8.70776 19.9271 8.78859C20.3878 8.9116 20.7638 9.17041 21.0483 9.56895C21.305 9.92856 21.4359 10.3387 21.4819 10.7805C21.5073 11.0246 21.5047 11.2691 21.4712 11.5128C21.4674 11.5353 21.4635 11.5581 21.4596 11.5807C21.4432 11.6627 21.4294 11.7454 21.4175 11.8286Z" fill="black"/>
</svg>
