<svg width="41" height="40" viewBox="0 0 41 40" fill="none" xmlns="http://www.w3.org/2000/svg">
<path fill-rule="evenodd" clip-rule="evenodd" d="M30.3923 13.5622C30.489 13.5318 30.6163 13.5926 30.7437 13.76C30.7437 13.76 30.7437 13.76 36.4987 19.3682C36.8348 19.7029 36.8348 20.2099 36.4987 20.4584C36.4987 20.4584 36.4987 20.4584 30.7437 26.1528C30.6163 26.3201 30.489 26.3607 30.3923 26.31C30.2955 26.2593 30.2344 26.1122 30.2344 25.8993V13.9273C30.2344 13.7194 30.2955 13.5926 30.3923 13.5622Z" fill="#ED1C24"/>
<path fill-rule="evenodd" clip-rule="evenodd" d="M20.544 4.21729H20.9514L21.3436 4.37955C21.3436 4.37955 21.3436 4.37955 27.2667 10.2413C27.5213 10.576 27.4347 10.8295 27.012 10.8295C27.012 10.8295 27.012 10.8295 24.5572 10.8295C24.1345 10.8295 23.7984 11.1642 23.7984 11.585C23.7984 11.585 23.7984 11.585 23.7984 15.9357C23.7984 16.3566 23.4571 16.6912 22.9479 16.6912C22.9479 16.6912 22.9479 16.6912 18.6341 16.6912C18.2114 16.6912 17.8702 16.3566 17.8702 15.9357C17.8702 15.9357 17.8702 15.9357 17.8702 11.585C17.8702 11.1642 17.5341 10.8295 17.1062 10.8295H14.4834C14.0607 10.8295 13.9741 10.576 14.2287 10.2413C14.2287 10.2413 14.2287 10.2413 20.1569 4.37955L20.544 4.21729Z" fill="#ED1C24"/>
<path fill-rule="evenodd" clip-rule="evenodd" d="M11.2664 13.4361C11.3734 13.4868 11.4396 13.6338 11.4396 13.8468V26.0672C11.4396 26.2802 11.3734 26.4069 11.2664 26.4475C11.1646 26.4881 11.0169 26.4475 10.8437 26.3207C10.8437 26.3207 10.8437 26.3207 5.0021 20.459C4.66597 20.2105 4.66597 19.7035 5.0021 19.3688C5.0021 19.3688 5.0021 19.3688 10.8437 13.5933C11.0169 13.4259 11.1646 13.3854 11.2664 13.4361Z" fill="#ED1C24"/>
<path fill-rule="evenodd" clip-rule="evenodd" d="M18.6335 23.0554C18.6335 23.0554 18.6335 23.0554 22.9472 23.0554C23.4565 23.0554 23.7977 23.3901 23.7977 23.811C23.7977 23.811 23.7977 23.811 23.7977 28.4152C23.7977 28.9172 24.1339 29.2518 24.5566 29.2518H26.8433C27.266 29.2518 27.4341 29.5003 27.098 29.7538C27.098 29.7538 27.098 29.7538 21.3429 35.5294C21.1698 35.6967 20.961 35.7829 20.7471 35.7829C20.5382 35.7829 20.3243 35.6967 20.1563 35.5294C20.1563 35.5294 20.1563 35.5294 14.4012 29.7538C14.06 29.5003 14.2281 29.2518 14.6508 29.2518C14.6508 29.2518 14.6508 29.2518 17.1056 29.2518C17.5334 29.2518 17.8695 28.9172 17.8695 28.4152C17.8695 28.4152 17.8695 28.4152 17.8695 23.811C17.8695 23.3901 18.2108 23.0554 18.6335 23.0554Z" fill="#ED1C24"/>
</svg>
